<mxfile host="app.diagrams.net" agent="Mozilla/5.0 (Windows NT 10.0; Win64; x64) AppleWebKit/537.36 (KHTML, like Gecko) Chrome/128.0.0.0 Safari/537.36 Edg/128.0.0.0" version="24.7.7" pages="3">
  <diagram name="General FSM" id="eh6xwYXdlgy1LYGolRj9">
    <mxGraphModel dx="1155" dy="624" grid="1" gridSize="10" guides="1" tooltips="1" connect="1" arrows="1" fold="1" page="1" pageScale="1" pageWidth="827" pageHeight="1169" background="none" math="0" shadow="0">
      <root>
        <mxCell id="0" />
        <mxCell id="1" parent="0" />
        <mxCell id="Lc3KypAjGT7oZhg8iTuu-1" value="&lt;div&gt;&lt;span style=&quot;background-color: initial;&quot;&gt;Manual Control of Motor Based Machine&lt;/span&gt;&lt;/div&gt;&lt;div&gt;state 0&lt;/div&gt;" style="rounded=1;whiteSpace=wrap;html=1;" parent="1" vertex="1">
          <mxGeometry x="108" y="100" width="150" height="90" as="geometry" />
        </mxCell>
        <mxCell id="Lc3KypAjGT7oZhg8iTuu-8" style="edgeStyle=orthogonalEdgeStyle;rounded=0;orthogonalLoop=1;jettySize=auto;html=1;entryX=0.5;entryY=0;entryDx=0;entryDy=0;" parent="1" source="Lc3KypAjGT7oZhg8iTuu-4" target="Lc3KypAjGT7oZhg8iTuu-1" edge="1">
          <mxGeometry relative="1" as="geometry" />
        </mxCell>
        <mxCell id="Lc3KypAjGT7oZhg8iTuu-4" value="RESET" style="rounded=0;whiteSpace=wrap;html=1;" parent="1" vertex="1">
          <mxGeometry x="153" y="40" width="60" height="30" as="geometry" />
        </mxCell>
        <mxCell id="Lc3KypAjGT7oZhg8iTuu-5" value="&lt;div&gt;Joystick Based PC Painter&lt;/div&gt;&lt;div&gt;state 1&lt;/div&gt;" style="rounded=1;whiteSpace=wrap;html=1;" parent="1" vertex="1">
          <mxGeometry x="618" y="100" width="150" height="90" as="geometry" />
        </mxCell>
        <mxCell id="Lc3KypAjGT7oZhg8iTuu-9" value="&lt;div&gt;Stepper Motor Calibration&lt;/div&gt;&lt;div&gt;state 2&lt;/div&gt;" style="rounded=1;whiteSpace=wrap;html=1;" parent="1" vertex="1">
          <mxGeometry x="620" y="430" width="150" height="90" as="geometry" />
        </mxCell>
        <mxCell id="Lc3KypAjGT7oZhg8iTuu-10" value="&lt;div&gt;Script Mode&lt;/div&gt;&lt;div&gt;state 3&lt;/div&gt;" style="rounded=1;whiteSpace=wrap;html=1;" parent="1" vertex="1">
          <mxGeometry x="108" y="430" width="150" height="90" as="geometry" />
        </mxCell>
        <mxCell id="4c53a6ffWKbErSLZDWIH-10" value="" style="endArrow=classic;startArrow=classic;html=1;rounded=0;entryX=0;entryY=0.5;entryDx=0;entryDy=0;exitX=1;exitY=0.5;exitDx=0;exitDy=0;" parent="1" source="Lc3KypAjGT7oZhg8iTuu-1" target="Lc3KypAjGT7oZhg8iTuu-5" edge="1">
          <mxGeometry width="50" height="50" relative="1" as="geometry">
            <mxPoint x="418" y="410" as="sourcePoint" />
            <mxPoint x="468" y="360" as="targetPoint" />
            <Array as="points" />
          </mxGeometry>
        </mxCell>
        <mxCell id="4c53a6ffWKbErSLZDWIH-11" value="&#39;Joystick Painter&#39;" style="edgeLabel;html=1;align=center;verticalAlign=middle;resizable=0;points=[];" parent="4c53a6ffWKbErSLZDWIH-10" vertex="1" connectable="0">
          <mxGeometry x="0.7389" y="-5" relative="1" as="geometry">
            <mxPoint x="-11" y="-5" as="offset" />
          </mxGeometry>
        </mxCell>
        <mxCell id="4c53a6ffWKbErSLZDWIH-13" value="" style="endArrow=classic;startArrow=classic;html=1;rounded=0;entryX=0.5;entryY=1;entryDx=0;entryDy=0;exitX=0.5;exitY=0;exitDx=0;exitDy=0;" parent="1" source="Lc3KypAjGT7oZhg8iTuu-10" target="Lc3KypAjGT7oZhg8iTuu-1" edge="1">
          <mxGeometry width="50" height="50" relative="1" as="geometry">
            <mxPoint x="418" y="410" as="sourcePoint" />
            <mxPoint x="468" y="360" as="targetPoint" />
          </mxGeometry>
        </mxCell>
        <mxCell id="4c53a6ffWKbErSLZDWIH-21" value="" style="endArrow=classic;startArrow=classic;html=1;rounded=0;exitX=1;exitY=1;exitDx=0;exitDy=0;entryX=0;entryY=0;entryDx=0;entryDy=0;" parent="1" source="Lc3KypAjGT7oZhg8iTuu-1" target="Lc3KypAjGT7oZhg8iTuu-9" edge="1">
          <mxGeometry width="50" height="50" relative="1" as="geometry">
            <mxPoint x="658" y="490" as="sourcePoint" />
            <mxPoint x="708" y="440" as="targetPoint" />
            <Array as="points" />
          </mxGeometry>
        </mxCell>
        <mxCell id="4c53a6ffWKbErSLZDWIH-22" value="&#39;Manual Control&#39;" style="edgeLabel;html=1;align=center;verticalAlign=middle;resizable=0;points=[];" parent="4c53a6ffWKbErSLZDWIH-21" vertex="1" connectable="0">
          <mxGeometry x="-0.9645" y="1" relative="1" as="geometry">
            <mxPoint x="25" y="17" as="offset" />
          </mxGeometry>
        </mxCell>
        <mxCell id="4c53a6ffWKbErSLZDWIH-26" value="" style="endArrow=classic;startArrow=classic;html=1;rounded=0;exitX=0.5;exitY=0;exitDx=0;exitDy=0;entryX=0.5;entryY=1;entryDx=0;entryDy=0;" parent="1" source="Lc3KypAjGT7oZhg8iTuu-9" target="Lc3KypAjGT7oZhg8iTuu-5" edge="1">
          <mxGeometry width="50" height="50" relative="1" as="geometry">
            <mxPoint x="658" y="310" as="sourcePoint" />
            <mxPoint x="708" y="260" as="targetPoint" />
          </mxGeometry>
        </mxCell>
        <mxCell id="4c53a6ffWKbErSLZDWIH-28" value="&#39;Stepper Calibration&#39;" style="edgeLabel;html=1;align=center;verticalAlign=middle;resizable=0;points=[];" parent="4c53a6ffWKbErSLZDWIH-26" vertex="1" connectable="0">
          <mxGeometry x="-0.675" relative="1" as="geometry">
            <mxPoint y="9" as="offset" />
          </mxGeometry>
        </mxCell>
        <mxCell id="TGDTkn9g64TOC4p8dSwg-1" value="" style="endArrow=classic;startArrow=classic;html=1;rounded=0;entryX=0;entryY=1;entryDx=0;entryDy=0;exitX=1;exitY=0;exitDx=0;exitDy=0;" edge="1" parent="1" source="Lc3KypAjGT7oZhg8iTuu-10" target="Lc3KypAjGT7oZhg8iTuu-5">
          <mxGeometry width="50" height="50" relative="1" as="geometry">
            <mxPoint x="408" y="260" as="sourcePoint" />
            <mxPoint x="458" y="210" as="targetPoint" />
          </mxGeometry>
        </mxCell>
        <mxCell id="TGDTkn9g64TOC4p8dSwg-3" value="&#39;Script Mode&#39;" style="edgeLabel;html=1;align=center;verticalAlign=middle;resizable=0;points=[];" vertex="1" connectable="0" parent="TGDTkn9g64TOC4p8dSwg-1">
          <mxGeometry x="-0.8897" relative="1" as="geometry">
            <mxPoint x="12" y="-9" as="offset" />
          </mxGeometry>
        </mxCell>
        <mxCell id="TGDTkn9g64TOC4p8dSwg-4" value="" style="endArrow=classic;startArrow=classic;html=1;rounded=0;entryX=0;entryY=0.5;entryDx=0;entryDy=0;exitX=1;exitY=0.5;exitDx=0;exitDy=0;" edge="1" parent="1" source="Lc3KypAjGT7oZhg8iTuu-10" target="Lc3KypAjGT7oZhg8iTuu-9">
          <mxGeometry width="50" height="50" relative="1" as="geometry">
            <mxPoint x="260" y="470" as="sourcePoint" />
            <mxPoint x="620" y="230" as="targetPoint" />
          </mxGeometry>
        </mxCell>
        <mxCell id="ILGWzZc9x5O1XlRy8z7M-1" value="&#39;Manual Control&#39;" style="edgeLabel;html=1;align=center;verticalAlign=middle;resizable=0;points=[];" vertex="1" connectable="0" parent="1">
          <mxGeometry x="320.0035563618764" y="145.00083385731926" as="geometry" />
        </mxCell>
        <mxCell id="ILGWzZc9x5O1XlRy8z7M-2" value="&#39;Manual Control&#39;" style="edgeLabel;html=1;align=center;verticalAlign=middle;resizable=0;points=[];" vertex="1" connectable="0" parent="1">
          <mxGeometry x="183.0035563618764" y="210.00083385731926" as="geometry" />
        </mxCell>
        <mxCell id="ILGWzZc9x5O1XlRy8z7M-3" value="&#39;Joystick Painter&#39;" style="edgeLabel;html=1;align=center;verticalAlign=middle;resizable=0;points=[];" vertex="1" connectable="0" parent="1">
          <mxGeometry x="590.0033333333334" y="210" as="geometry" />
        </mxCell>
        <mxCell id="ILGWzZc9x5O1XlRy8z7M-4" value="&#39;Joystick Painter&#39;" style="edgeLabel;html=1;align=center;verticalAlign=middle;resizable=0;points=[];" vertex="1" connectable="0" parent="1">
          <mxGeometry x="693.0033333333334" y="210" as="geometry" />
        </mxCell>
        <mxCell id="ILGWzZc9x5O1XlRy8z7M-5" value="&#39;Stepper Calibration&#39;" style="edgeLabel;html=1;align=center;verticalAlign=middle;resizable=0;points=[];" vertex="1" connectable="0" parent="1">
          <mxGeometry x="577.0036224434685" y="407.8346932162102" as="geometry" />
        </mxCell>
        <mxCell id="ILGWzZc9x5O1XlRy8z7M-6" value="&#39;Stepper Calibration&#39;" style="edgeLabel;html=1;align=center;verticalAlign=middle;resizable=0;points=[];" vertex="1" connectable="0" parent="1">
          <mxGeometry x="553.0036224434685" y="475.0046932162102" as="geometry" />
        </mxCell>
        <mxCell id="ILGWzZc9x5O1XlRy8z7M-7" value="&#39;Script Mode&#39;" style="edgeLabel;html=1;align=center;verticalAlign=middle;resizable=0;points=[];" vertex="1" connectable="0" parent="1">
          <mxGeometry x="309.99788211316456" y="475.00474525789025" as="geometry" />
        </mxCell>
        <mxCell id="ILGWzZc9x5O1XlRy8z7M-8" value="&#39;Script Mode&#39;" style="edgeLabel;html=1;align=center;verticalAlign=middle;resizable=0;points=[];" vertex="1" connectable="0" parent="1">
          <mxGeometry x="182.99788211316456" y="400.00474525789025" as="geometry" />
        </mxCell>
      </root>
    </mxGraphModel>
  </diagram>
  <diagram id="stWiFAhufDjgCwreHzaE" name="Calibrate">
    <mxGraphModel dx="1386" dy="749" grid="1" gridSize="10" guides="1" tooltips="1" connect="1" arrows="1" fold="1" page="1" pageScale="1" pageWidth="827" pageHeight="1169" background="none" math="0" shadow="0">
      <root>
        <mxCell id="0" />
        <mxCell id="1" parent="0" />
        <mxCell id="urumBsoZdbiTibzcdWHN-1" value="" style="rounded=1;whiteSpace=wrap;html=1;dashed=1;dashPattern=12 12;" vertex="1" parent="1">
          <mxGeometry x="120" y="130" width="660" height="290" as="geometry" />
        </mxCell>
        <mxCell id="urumBsoZdbiTibzcdWHN-5" value="&lt;div&gt;Stop Calibration&lt;/div&gt;&lt;div&gt;update and print &#39;counter&#39; and &#39;phi&#39;&lt;/div&gt;" style="rounded=1;whiteSpace=wrap;html=1;" vertex="1" parent="1">
          <mxGeometry x="580" y="160" width="150" height="90" as="geometry" />
        </mxCell>
        <mxCell id="urumBsoZdbiTibzcdWHN-6" value="Sleep" style="rounded=1;whiteSpace=wrap;html=1;" vertex="1" parent="1">
          <mxGeometry x="375" y="310" width="150" height="90" as="geometry" />
        </mxCell>
        <mxCell id="urumBsoZdbiTibzcdWHN-7" value="State 2 - Stepper Motor Calibration" style="text;html=1;align=center;verticalAlign=middle;resizable=0;points=[];autosize=1;strokeColor=none;fillColor=none;fontSize=17;" vertex="1" parent="1">
          <mxGeometry x="136" y="100" width="290" height="30" as="geometry" />
        </mxCell>
        <mxCell id="urumBsoZdbiTibzcdWHN-14" value="" style="shape=flexArrow;endArrow=classic;html=1;rounded=0;" edge="1" parent="1">
          <mxGeometry width="50" height="50" relative="1" as="geometry">
            <mxPoint x="435" y="401" as="sourcePoint" />
            <mxPoint x="435.5" y="471" as="targetPoint" />
          </mxGeometry>
        </mxCell>
        <mxCell id="urumBsoZdbiTibzcdWHN-15" value="Other states" style="rounded=0;whiteSpace=wrap;html=1;" vertex="1" parent="1">
          <mxGeometry x="397" y="477" width="120" height="60" as="geometry" />
        </mxCell>
        <mxCell id="urumBsoZdbiTibzcdWHN-16" value="" style="endArrow=classic;html=1;rounded=0;exitX=0.75;exitY=0;exitDx=0;exitDy=0;entryX=0.75;entryY=1;entryDx=0;entryDy=0;" edge="1" parent="1" source="urumBsoZdbiTibzcdWHN-15" target="urumBsoZdbiTibzcdWHN-6">
          <mxGeometry width="50" height="50" relative="1" as="geometry">
            <mxPoint x="384" y="320" as="sourcePoint" />
            <mxPoint x="451.5" y="240" as="targetPoint" />
          </mxGeometry>
        </mxCell>
        <mxCell id="urumBsoZdbiTibzcdWHN-17" value="&#39;Stepper Calibration&#39;" style="edgeLabel;html=1;align=center;verticalAlign=middle;resizable=0;points=[];fontSize=13;" vertex="1" connectable="0" parent="urumBsoZdbiTibzcdWHN-16">
          <mxGeometry x="0.2894" relative="1" as="geometry">
            <mxPoint x="15" y="3" as="offset" />
          </mxGeometry>
        </mxCell>
        <mxCell id="zsLKbGdZ_dkw07I08UDG-1" value="&lt;div&gt;Start Calibration&lt;/div&gt;" style="rounded=1;whiteSpace=wrap;html=1;" vertex="1" parent="1">
          <mxGeometry x="170" y="160" width="150" height="90" as="geometry" />
        </mxCell>
        <mxCell id="zsLKbGdZ_dkw07I08UDG-3" value="" style="endArrow=classic;html=1;rounded=0;exitX=0;exitY=0.5;exitDx=0;exitDy=0;entryX=0.5;entryY=1;entryDx=0;entryDy=0;" edge="1" parent="1" source="urumBsoZdbiTibzcdWHN-6" target="zsLKbGdZ_dkw07I08UDG-1">
          <mxGeometry width="50" height="50" relative="1" as="geometry">
            <mxPoint x="220" y="340" as="sourcePoint" />
            <mxPoint x="270" y="290" as="targetPoint" />
            <Array as="points">
              <mxPoint x="245" y="355" />
            </Array>
          </mxGeometry>
        </mxCell>
        <mxCell id="zsLKbGdZ_dkw07I08UDG-4" value="&#39;Start Rotation&#39; / Joystick PB" style="edgeLabel;html=1;align=center;verticalAlign=middle;resizable=0;points=[];fontSize=12;" vertex="1" connectable="0" parent="zsLKbGdZ_dkw07I08UDG-3">
          <mxGeometry x="0.7872" relative="1" as="geometry">
            <mxPoint as="offset" />
          </mxGeometry>
        </mxCell>
        <mxCell id="zsLKbGdZ_dkw07I08UDG-5" value="" style="endArrow=classic;html=1;rounded=0;exitX=1;exitY=0.5;exitDx=0;exitDy=0;entryX=0;entryY=0.5;entryDx=0;entryDy=0;" edge="1" parent="1" source="zsLKbGdZ_dkw07I08UDG-1" target="urumBsoZdbiTibzcdWHN-5">
          <mxGeometry width="50" height="50" relative="1" as="geometry">
            <mxPoint x="340" y="210" as="sourcePoint" />
            <mxPoint x="390" y="160" as="targetPoint" />
          </mxGeometry>
        </mxCell>
        <mxCell id="zsLKbGdZ_dkw07I08UDG-7" value="&#39;Stop Rotation&#39; / Joystick PB" style="edgeLabel;html=1;align=center;verticalAlign=middle;resizable=0;points=[];fontSize=12;" vertex="1" connectable="0" parent="1">
          <mxGeometry x="484" y="205" as="geometry" />
        </mxCell>
        <mxCell id="zsLKbGdZ_dkw07I08UDG-8" value="" style="endArrow=classic;html=1;rounded=0;exitX=0.5;exitY=1;exitDx=0;exitDy=0;entryX=1;entryY=0.5;entryDx=0;entryDy=0;" edge="1" parent="1" source="urumBsoZdbiTibzcdWHN-5" target="urumBsoZdbiTibzcdWHN-6">
          <mxGeometry width="50" height="50" relative="1" as="geometry">
            <mxPoint x="610" y="330" as="sourcePoint" />
            <mxPoint x="660" y="280" as="targetPoint" />
            <Array as="points">
              <mxPoint x="655" y="355" />
            </Array>
          </mxGeometry>
        </mxCell>
        <mxCell id="zsLKbGdZ_dkw07I08UDG-9" value="Updating and printing&lt;div style=&quot;font-size: 12px;&quot;&gt;finished&lt;/div&gt;" style="edgeLabel;html=1;align=center;verticalAlign=middle;resizable=0;points=[];fontSize=12;" vertex="1" connectable="0" parent="zsLKbGdZ_dkw07I08UDG-8">
          <mxGeometry x="-0.5745" y="-1" relative="1" as="geometry">
            <mxPoint x="1" y="-10" as="offset" />
          </mxGeometry>
        </mxCell>
      </root>
    </mxGraphModel>
  </diagram>
  <diagram id="M8Ohaiqmsgl1GThVjMlP" name="Manual Control">
    <mxGraphModel dx="1386" dy="749" grid="1" gridSize="10" guides="1" tooltips="1" connect="1" arrows="1" fold="1" page="1" pageScale="1" pageWidth="827" pageHeight="1169" math="0" shadow="0">
      <root>
        <mxCell id="0" />
        <mxCell id="1" parent="0" />
        <mxCell id="msdcC0n5WlLofMKaHQe7-25" value="" style="rounded=1;whiteSpace=wrap;html=1;dashed=1;dashPattern=12 12;" vertex="1" parent="1">
          <mxGeometry x="40" y="140" width="760" height="150" as="geometry" />
        </mxCell>
        <mxCell id="msdcC0n5WlLofMKaHQe7-1" value="&lt;div&gt;Sleep Mode&lt;/div&gt;" style="rounded=1;whiteSpace=wrap;html=1;" vertex="1" parent="1">
          <mxGeometry x="345" y="180" width="150" height="90" as="geometry" />
        </mxCell>
        <mxCell id="msdcC0n5WlLofMKaHQe7-2" style="edgeStyle=orthogonalEdgeStyle;rounded=0;orthogonalLoop=1;jettySize=auto;html=1;entryX=0.5;entryY=0;entryDx=0;entryDy=0;" edge="1" parent="1" source="msdcC0n5WlLofMKaHQe7-3" target="msdcC0n5WlLofMKaHQe7-1">
          <mxGeometry relative="1" as="geometry" />
        </mxCell>
        <mxCell id="msdcC0n5WlLofMKaHQe7-3" value="RESET" style="rounded=0;whiteSpace=wrap;html=1;" vertex="1" parent="1">
          <mxGeometry x="390" y="70" width="60" height="30" as="geometry" />
        </mxCell>
        <mxCell id="msdcC0n5WlLofMKaHQe7-4" value="&lt;div&gt;Rotate&lt;/div&gt;" style="rounded=1;whiteSpace=wrap;html=1;" vertex="1" parent="1">
          <mxGeometry x="627" y="180" width="150" height="90" as="geometry" />
        </mxCell>
        <mxCell id="msdcC0n5WlLofMKaHQe7-6" value="&lt;div&gt;JoyStick Control&lt;/div&gt;" style="rounded=1;whiteSpace=wrap;html=1;" vertex="1" parent="1">
          <mxGeometry x="60" y="180" width="150" height="90" as="geometry" />
        </mxCell>
        <mxCell id="msdcC0n5WlLofMKaHQe7-26" value="State 0 - Manual Control" style="text;html=1;align=center;verticalAlign=middle;resizable=0;points=[];autosize=1;strokeColor=none;fillColor=none;fontSize=17;" vertex="1" parent="1">
          <mxGeometry x="50" y="110" width="210" height="30" as="geometry" />
        </mxCell>
        <mxCell id="msdcC0n5WlLofMKaHQe7-29" value="" style="endArrow=classic;startArrow=classic;html=1;rounded=0;entryX=0;entryY=0.5;entryDx=0;entryDy=0;exitX=1;exitY=0.5;exitDx=0;exitDy=0;" edge="1" parent="1" source="msdcC0n5WlLofMKaHQe7-1" target="msdcC0n5WlLofMKaHQe7-4">
          <mxGeometry width="50" height="50" relative="1" as="geometry">
            <mxPoint x="230" y="220" as="sourcePoint" />
            <mxPoint x="199.32" y="380" as="targetPoint" />
          </mxGeometry>
        </mxCell>
        <mxCell id="msdcC0n5WlLofMKaHQe7-30" value="&#39;Rotate&#39;" style="edgeLabel;html=1;align=center;verticalAlign=middle;resizable=0;points=[];" vertex="1" connectable="0" parent="msdcC0n5WlLofMKaHQe7-29">
          <mxGeometry x="0.6167" relative="1" as="geometry">
            <mxPoint x="-3" as="offset" />
          </mxGeometry>
        </mxCell>
        <mxCell id="msdcC0n5WlLofMKaHQe7-31" value="&#39;Stop&#39;" style="edgeLabel;html=1;align=center;verticalAlign=middle;resizable=0;points=[];" vertex="1" connectable="0" parent="msdcC0n5WlLofMKaHQe7-29">
          <mxGeometry x="-0.8444" relative="1" as="geometry">
            <mxPoint x="21" as="offset" />
          </mxGeometry>
        </mxCell>
        <mxCell id="msdcC0n5WlLofMKaHQe7-32" value="" style="endArrow=classic;startArrow=classic;html=1;rounded=0;entryX=1;entryY=0.5;entryDx=0;entryDy=0;exitX=0;exitY=0.5;exitDx=0;exitDy=0;" edge="1" parent="1" source="msdcC0n5WlLofMKaHQe7-1" target="msdcC0n5WlLofMKaHQe7-6">
          <mxGeometry width="50" height="50" relative="1" as="geometry">
            <mxPoint x="220" y="330" as="sourcePoint" />
            <mxPoint x="270" y="280" as="targetPoint" />
          </mxGeometry>
        </mxCell>
        <mxCell id="msdcC0n5WlLofMKaHQe7-33" value="&#39;JoyStick&lt;div&gt;Control&#39;&lt;/div&gt;" style="edgeLabel;html=1;align=center;verticalAlign=middle;resizable=0;points=[];" vertex="1" connectable="0" parent="msdcC0n5WlLofMKaHQe7-32">
          <mxGeometry x="0.6" y="1" relative="1" as="geometry">
            <mxPoint x="8" y="-1" as="offset" />
          </mxGeometry>
        </mxCell>
        <mxCell id="msdcC0n5WlLofMKaHQe7-34" value="&#39;Stop&#39;" style="edgeLabel;html=1;align=center;verticalAlign=middle;resizable=0;points=[];" vertex="1" connectable="0" parent="msdcC0n5WlLofMKaHQe7-32">
          <mxGeometry x="-0.5259" y="1" relative="1" as="geometry">
            <mxPoint y="-2" as="offset" />
          </mxGeometry>
        </mxCell>
        <mxCell id="msdcC0n5WlLofMKaHQe7-35" value="" style="shape=flexArrow;endArrow=classic;html=1;rounded=0;" edge="1" parent="1">
          <mxGeometry width="50" height="50" relative="1" as="geometry">
            <mxPoint x="419.5" y="270" as="sourcePoint" />
            <mxPoint x="420" y="340" as="targetPoint" />
          </mxGeometry>
        </mxCell>
        <mxCell id="msdcC0n5WlLofMKaHQe7-36" value="Other states" style="rounded=0;whiteSpace=wrap;html=1;" vertex="1" parent="1">
          <mxGeometry x="367" y="346" width="120" height="60" as="geometry" />
        </mxCell>
        <mxCell id="msdcC0n5WlLofMKaHQe7-37" value="" style="endArrow=classic;html=1;rounded=0;exitX=0.75;exitY=0;exitDx=0;exitDy=0;entryX=0.75;entryY=1;entryDx=0;entryDy=0;" edge="1" parent="1" source="msdcC0n5WlLofMKaHQe7-36" target="msdcC0n5WlLofMKaHQe7-1">
          <mxGeometry width="50" height="50" relative="1" as="geometry">
            <mxPoint x="390" y="350" as="sourcePoint" />
            <mxPoint x="440" y="300" as="targetPoint" />
          </mxGeometry>
        </mxCell>
        <mxCell id="msdcC0n5WlLofMKaHQe7-38" value="&#39;Manual Control&#39;" style="edgeLabel;html=1;align=center;verticalAlign=middle;resizable=0;points=[];" vertex="1" connectable="0" parent="msdcC0n5WlLofMKaHQe7-37">
          <mxGeometry x="0.2894" relative="1" as="geometry">
            <mxPoint x="15" y="3" as="offset" />
          </mxGeometry>
        </mxCell>
      </root>
    </mxGraphModel>
  </diagram>
</mxfile>
